<?xml version="1.0" encoding="UTF-8" standalone="no"?>
<svg
   xmlns:dc="http://purl.org/dc/elements/1.1/"
   xmlns:cc="http://creativecommons.org/ns#"
   xmlns:rdf="http://www.w3.org/1999/02/22-rdf-syntax-ns#"
   xmlns:svg="http://www.w3.org/2000/svg"
   xmlns="http://www.w3.org/2000/svg"
   height="16"
   width="16"
   xml:space="preserve"
   style="opacity:1"
   viewBox="0 0 16 16"
   y="0px"
   x="0px"
   id="_x32_"
   version="1.1"><metadata
   id="metadata15"><rdf:RDF><cc:Work
       rdf:about=""><dc:format>image/svg+xml</dc:format><dc:type
         rdf:resource="http://purl.org/dc/dcmitype/StillImage" /><dc:title></dc:title></cc:Work></rdf:RDF></metadata><defs
   id="defs13" />
<g
   transform="translate(0.00208526,-497.41105)"
   id="g8">
	<path
   id="path2"
   d="M -0.00208526,498.82339 V 511.9987 H 15.996621 V 498.82339 Z M 14.741754,510.7438 H 1.252782 v -10.66579 h 13.488972 z" />
	<path
   id="path4"
   d="m 10.188591,503.90267 c -0.129615,-0.19652 -0.3494407,-0.31488 -0.5849529,-0.31463 -0.2357309,2.2e-4 -0.4552757,0.11883 -0.5846402,0.3156 l -2.25688,3.43453 -1.2455868,-1.4117 c -0.1443321,-0.16367 -0.3570337,-0.25066 -0.5748598,-0.23498 -0.2178261,0.0152 -0.4158414,0.13159 -0.5356442,0.31413 l -2.0904872,3.18512 H 13.678965 Z" />
	<path
   id="path6"
   d="m 5.4653477,504.62089 c 0.7843741,0 1.4202914,-0.63588 1.4202914,-1.42054 0,-0.78437 -0.6358861,-1.42026 -1.4202914,-1.42026 -0.7846241,0 -1.4205101,0.63589 -1.4205101,1.42026 -3.13e-5,0.78466 0.635886,1.42054 1.4205101,1.42054 z" />
</g>
</svg>