<?xml version="1.0" encoding="UTF-8" standalone="no"?>
<svg
   xmlns:dc="http://purl.org/dc/elements/1.1/"
   xmlns:cc="http://creativecommons.org/ns#"
   xmlns:rdf="http://www.w3.org/1999/02/22-rdf-syntax-ns#"
   xmlns:svg="http://www.w3.org/2000/svg"
   xmlns="http://www.w3.org/2000/svg"
   height="16"
   width="16"
   xml:space="preserve"
   style="opacity:1"
   viewBox="0 0 16 16"
   y="0px"
   x="0px"
   id="_x32_"
   version="1.1">
   <g transform="matrix(0.99999779,0,0,0.99999779,0,-476.62392)" id="g4">
   <path d="m 13.938322,479.50609 c -1.273812,-1.32481 -3.046468,-2.17631 -5.0119683,-2.25568 -0.493469,-0.0199 -0.909813,0.364 -0.92975,0.85728 -0.01994,0.49347 0.364,0.90981 0.857062,0.93 1.4910943,0.0607 2.8265633,0.70253 3.7962193,1.70878 0.968344,1.00734 1.561125,2.36766 1.561594,3.87534 -4.69e-4,1.54628 -0.624282,2.93785 -1.636969,3.95232 -1.014438,1.0129 -2.406219,1.6365 -3.9522503,1.63693 -1.546063,-4.7e-4 -2.938281,-0.62406 -3.952313,-1.63693 -1.012656,-1.01447 -1.6365,-2.406 -1.636937,-3.95232 0,-0.10884 0.0033,-0.21681 0.0094,-0.32387 l 1.065344,0.52584 c 0.115688,0.057 0.250063,0.0579 0.354688,0.003 0.105062,-0.0559 0.167156,-0.16053 0.1645,-0.278 l -0.105063,-4.68231 c -0.0036,-0.13391 -0.09,-0.26116 -0.221687,-0.327 -0.132563,-0.0647 -0.286438,-0.0565 -0.394157,0.0231 l -3.78078105,2.764 c -0.09531,0.0694 -0.140562,0.18222 -0.120625,0.29928 0.01906,0.11747 0.101531,0.22322 0.217688,0.28044 l 1.11631205,0.5509 c -0.06053,0.38019 -0.09431,0.76882 -0.09431,1.16497 -4.38e-4,2.03444 0.827343,3.88469 2.161031,5.217 1.332375,1.3335 3.182156,2.16125 5.216844,2.16085 2.0342183,4.3e-4 3.8844373,-0.82735 5.2167813,-2.16082 1.333687,-1.33234 2.161469,-3.18256 2.161062,-5.217 4.07e-4,-1.98325 -0.786156,-3.79203 -2.06175,-5.11575 z"/>
   </g>
</svg>