<?xml version="1.0" encoding="UTF-8" standalone="no"?>
<svg
	xmlns:dc="http://purl.org/dc/elements/1.1/"
	xmlns:cc="http://creativecommons.org/ns#"
	xmlns:rdf="http://www.w3.org/1999/02/22-rdf-syntax-ns#"
	xmlns:svg="http://www.w3.org/2000/svg"
	xmlns="http://www.w3.org/2000/svg"
	version="1.1"
	id="_x32_"
	x="0px"
	y="0px"
	width="16"
	height="16"
	viewBox="0 0 16 16"
	style="opacity:1"
	xml:space="preserve">
	<g id="g4496">
		<path style="stroke-width:1" id="path4" d="m 8,7.2846719 c -0.89062,0 -1.61231,0.7280313 -1.61231,1.6264692 0,0.898937 0.72169,1.6264679 1.61231,1.6264679 0.89063,0 1.61231,-0.7275309 1.61231,-1.6264679 C 9.61231,8.0127032 8.89063,7.2846719 8,7.2846719 Z" />
		<path style="stroke-width:1" id="path6" d="M 15.54297,4.3842969 C 15.26222,4.1001094 14.86669,3.9213907 14.43506,3.9213907 h -1.69384 c -0.13622,5e-4 -0.26369,-0.081062 -0.32228,-0.2129063 l -0.50732,-1.13575 c -0.25096,-0.563 -0.80909,-0.9291875 -1.42821,-0.9291875 H 5.51659 c -0.61915,0 -1.17725,0.3662188 -1.42871,0.9287188 v 5e-4 l -0.50685,1.13575 C 3.52243,3.8403594 3.395,3.9218907 3.25875,3.9214219 H 1.56494 c -0.43166,0 -0.82763,0.1787188 -1.10888,0.4629063 C 0.17481,4.6674844 0,5.0634844 0,5.4946407 v 7.2890623 c 0,0.431156 0.17481,0.827156 0.45606,1.110344 0.28125,0.284187 0.67725,0.462906 1.10888,0.462406 h 7.05565 5.81447 c 0.43166,5e-4 0.82716,-0.178219 1.10791,-0.462406 C 15.82519,13.610828 16,13.214859 16,12.783703 V 5.4946407 C 16,5.0634844 15.82519,4.6670157 15.54297,4.3842969 Z m -0.75294,8.3994061 c 0,0.103531 -0.04,0.191406 -0.10547,0.258781 -0.0674,0.06591 -0.15137,0.104 -0.2495,0.1045 H 8.62059 1.56494 c -0.0986,-5e-4 -0.1831,-0.03856 -0.2495,-0.1045 -0.0654,-0.06738 -0.10547,-0.155281 -0.10547,-0.258781 V 5.4946407 c 0,-0.1035313 0.04,-0.1914063 0.10547,-0.2587813 0.0664,-0.066406 0.15087,-0.104 0.2495,-0.1045 h 1.69384 c 0.61816,0 1.17675,-0.3666875 1.42775,-0.9301875 l 0.50588,-1.13525 C 5.25201,2.9345782 5.37894,2.8530157 5.51663,2.8530157 h 4.96681 c 0.13769,0 0.26465,0.081531 0.32372,0.2124062 L 11.314,4.2016407 c 0.2505,0.563 0.80909,0.9296875 1.42725,0.9296875 h 1.69384 c 0.0982,5e-4 0.18213,0.038094 0.2495,0.1045 0.0654,0.067375 0.10547,0.15575 0.10547,0.2587812 v 7.2890936 z" />
		<path style="stroke-width:1" id="path8" d="m 8,5.3418282 c -0.97853,-5e-4 -1.86719,0.401375 -2.50634,1.046875 -0.64013,0.6455 -1.03663,1.5395625 -1.03613,2.5224689 -5e-4,0.982906 0.396,1.8779369 1.03613,2.5224679 0.63915,0.646 1.52784,1.047375 2.50634,1.047375 0.97803,0 1.86719,-0.401375 2.50634,-1.047375 0.64013,-0.644531 1.03663,-1.5395619 1.03613,-2.5224679 5e-4,-0.9829064 -0.396,-1.8769689 -1.03613,-2.5224689 C 9.86719,5.7431719 8.97803,5.3413282 8,5.3418282 Z M 9.84472,10.777859 C 9.37059,11.25589 8.72119,11.549359 8,11.549359 c -0.72169,0 -1.37059,-0.293469 -1.84522,-0.7715 C 5.68163,10.299828 5.38916,9.6426091 5.38866,8.9111721 5.38916,8.1802032 5.68163,7.5229844 6.15478,7.0444844 6.62941,6.5664532 7.27831,6.2734844 8,6.2729844 c 0.72119,5e-4 1.37059,0.2934688 1.84472,0.7715 0.47362,0.4785313 0.76612,1.13575 0.76659,1.8666877 -4.7e-4,0.731437 -0.29293,1.3886559 -0.76659,1.8666869 z" />
		<path style="stroke-width:1" d="m 12.25587,6.176766 h 1.07519 v 1.0751872 h -1.07519 z" id="rect10" />
	</g>
</svg>